<svg version="1.1" xmlns="http://www.w3.org/2000/svg" xmlns:xlink="http://www.w3.org/1999/xlink" width="265" height="244"><defs><clipPath id="JpofqhehKGZo"><path fill="none" stroke="none"/></clipPath><clipPath id="nsCBXaXsQBat"><path fill="none" stroke="none"/></clipPath><clipPath id="hkzymDnOGPbU"><path fill="none" stroke="none"/></clipPath><clipPath id="dxdkyyNbwaFR"><path fill="none" stroke="none"/></clipPath><clipPath id="vQPFJOCHKkbA"><path fill="none" stroke="none"/></clipPath><clipPath id="CUQdWKzycRdu"><path fill="none" stroke="none"/></clipPath><clipPath id="EHTpVIrtPzKi"><path fill="none" stroke="none"/></clipPath><clipPath id="vhmhODsdxxdO"><path fill="none" stroke="none"/></clipPath><clipPath id="ysERSUZSwUgH"><path fill="none" stroke="none"/></clipPath><clipPath id="wBTLvsTDITsM"><path fill="none" stroke="none"/></clipPath><clipPath id="obFiaczbbCKv"><path fill="none" stroke="none"/></clipPath><clipPath id="WStSuGhQmhqy"><path fill="none" stroke="none"/></clipPath><clipPath id="TasUZGRyRPJC"><path fill="none" stroke="none"/></clipPath><clipPath id="dRNcofPFWgsD"><path fill="none" stroke="none"/></clipPath><clipPath id="ZNirhQGxVaTf"><path fill="none" stroke="none"/></clipPath><clipPath id="BeLIzHSFxwmB"><path fill="none" stroke="none"/></clipPath><clipPath id="htOTwJiMiTpm"><path fill="none" stroke="none"/></clipPath><clipPath id="wTBWsUVwsneq"><path fill="none" stroke="none"/></clipPath><clipPath id="ghxZpmpcrcAr"><path fill="none" stroke="none"/></clipPath><clipPath id="yRkSnNuilrpq"><path fill="none" stroke="none"/></clipPath><clipPath id="lTbePSUfVALK"><path fill="none" stroke="none"/></clipPath><clipPath id="RQoSZWItTQUh"><path fill="none" stroke="none"/></clipPath><clipPath id="LpnQuMqIXHNc"><path fill="none" stroke="none"/></clipPath><clipPath id="dxOGgSaBJyAD"><path fill="none" stroke="none"/></clipPath><clipPath id="irhLbtKxlRBu"><path fill="none" stroke="none"/></clipPath><clipPath id="BSVpLDuxsPNW"><path fill="none" stroke="none"/></clipPath><clipPath id="lIODzpyAcCOZ"><path fill="none" stroke="none"/></clipPath><clipPath id="qlbsDrtzHnlq"><path fill="none" stroke="none"/></clipPath><clipPath id="LcghogPPLIsn"><path fill="none" stroke="none"/></clipPath><clipPath id="vQzZVwFvktIX"><path fill="none" stroke="none"/></clipPath><clipPath id="DebZwVhKXCOm"><path fill="none" stroke="none"/></clipPath><clipPath id="DVGaqRDNbCxn"><path fill="none" stroke="none"/></clipPath><clipPath id="NDVUvWDMQIfb"><path fill="none" stroke="none"/></clipPath><clipPath id="aJPLTeZsWCVd"><path fill="none" stroke="none"/></clipPath><clipPath id="AXhUPToKlQoi"><path fill="none" stroke="none"/></clipPath><clipPath id="nHUephxDWfuL"><path fill="none" stroke="none"/></clipPath><clipPath id="BHxkdIXPTIiU"><path fill="none" stroke="none"/></clipPath><clipPath id="dsKxKCVSiogw"><path fill="none" stroke="none"/></clipPath><clipPath id="LbaJyEJfMXRS"><path fill="none" stroke="none"/></clipPath><clipPath id="DAfkFfcoNQER"><path fill="none" stroke="none"/></clipPath><clipPath id="xtkbgbRilxmT"><path fill="none" stroke="none"/></clipPath><clipPath id="iaMNulOrSrwt"><path fill="none" stroke="none"/></clipPath><clipPath id="JRRekmJASmbi"><path fill="none" stroke="none"/></clipPath><clipPath id="BclopnGoEkPN"><path fill="none" stroke="none"/></clipPath><clipPath id="xXyKJkfiHkcX"><path fill="none" stroke="none"/></clipPath><clipPath id="ZqfcbWMkDUkD"><path fill="none" stroke="none"/></clipPath><clipPath id="wDhCpcQiTszn"><path fill="none" stroke="none"/></clipPath><clipPath id="LKrqBTLFtSkd"><path fill="none" stroke="none"/></clipPath><clipPath id="fwPpwCeNwekC"><path fill="none" stroke="none"/></clipPath><clipPath id="HePsBMFDXmim"><path fill="none" stroke="none"/></clipPath><clipPath id="esFIEkHaFlMG"><path fill="none" stroke="none"/></clipPath><clipPath id="PiRJkcqRynfc"><path fill="none" stroke="none"/></clipPath><clipPath id="JWWKaSAOwHip"><path fill="none" stroke="none"/></clipPath><clipPath id="dyTdAiOCWQVq"><path fill="none" stroke="none"/></clipPath><clipPath id="FWCcaoLWXGVe"><path fill="none" stroke="none"/></clipPath><clipPath id="ZUDxmPVywGDM"><path fill="none" stroke="none"/></clipPath><clipPath id="bUbAzGZxNiZI"><path fill="none" stroke="none"/></clipPath><clipPath id="SDcZCtStExCd"><path fill="none" stroke="none"/></clipPath><clipPath id="aZQTvaasgRwm"><path fill="none" stroke="none"/></clipPath><clipPath id="CyUkQMvmaPIm"><path fill="none" stroke="none"/></clipPath><clipPath id="TdgJcxhdaFTq"><path fill="none" stroke="none"/></clipPath><clipPath id="ywUqVtZcQnRm"><path fill="none" stroke="none"/></clipPath></defs><g><g><rect fill="green" stroke="none" x="38.9443359375" y="45.6" width="40" height="12"/><rect fill="none" stroke="9CCC65" x="38.9443359375" y="45.6" width="40" height="12" stroke-miterlimit="10" stroke-width="2"/></g><text fill="#666" stroke="none" font-family="&quot;Roboto&quot;,&quot;Helvetica Neue&quot;,sans-serif" font-size="12px" font-style="normal" font-weight="normal" text-decoration="normal" x="84.9443359375" y="51.6" text-anchor="start" dominant-baseline="central">Success</text><g><rect fill="red" stroke="none" x="139.9736328125" y="45.6" width="40" height="12"/><rect fill="none" stroke="7CB342" x="139.9736328125" y="45.6" width="40" height="12" stroke-miterlimit="10" stroke-width="2"/></g><text fill="#666" stroke="none" font-family="&quot;Roboto&quot;,&quot;Helvetica Neue&quot;,sans-serif" font-size="12px" font-style="normal" font-weight="normal" text-decoration="normal" x="185.9736328125" y="51.6" text-anchor="start" dominant-baseline="central">Failure</text><g transform="translate(132.5,17.8) rotate(0,0,0)"><text fill="#000000" stroke="none" font-family="&quot;Roboto&quot;,&quot;Helvetica Neue&quot;,sans-serif" font-size="13px" font-style="normal" font-weight="bold" text-decoration="normal" x="0" y="0" text-anchor="middle" dominant-baseline="central">Bar Chart Example</text></g><g><path fill="none" stroke="rgb(0,0,0)" paint-order="fill stroke markers" d=" M 46.1 181 L 46.1 190.6114049890704 M 46.1 67.6 L 46.1 180" stroke-opacity="0.25" stroke-miterlimit="10"/></g><g><path fill="none" stroke="rgb(0,0,0)" paint-order="fill stroke markers" d=" M 67.7 181 L 67.7 190.6114049890704 M 67.7 67.6 L 67.7 180" stroke-opacity="0.1" stroke-miterlimit="10"/></g><g><path fill="none" stroke="rgb(0,0,0)" paint-order="fill stroke markers" d=" M 89.3 181 L 89.3 190.6114049890704 M 89.3 67.6 L 89.3 180" stroke-opacity="0.1" stroke-miterlimit="10"/></g><g><path fill="none" stroke="rgb(0,0,0)" paint-order="fill stroke markers" d=" M 110.9 181 L 110.9 190.6114049890704 M 110.9 67.6 L 110.9 180" stroke-opacity="0.1" stroke-miterlimit="10"/></g><g><path fill="none" stroke="rgb(0,0,0)" paint-order="fill stroke markers" d=" M 131.7 181 L 131.7 190.6114049890704 M 131.7 67.6 L 131.7 180" stroke-opacity="0.1" stroke-miterlimit="10"/></g><g><path fill="none" stroke="rgb(0,0,0)" paint-order="fill stroke markers" d=" M 153.3 181 L 153.3 190.6114049890704 M 153.3 67.6 L 153.3 180" stroke-opacity="0.1" stroke-miterlimit="10"/></g><g><path fill="none" stroke="rgb(0,0,0)" paint-order="fill stroke markers" d=" M 174.9 181 L 174.9 190.6114049890704 M 174.9 67.6 L 174.9 180" stroke-opacity="0.1" stroke-miterlimit="10"/></g><g><path fill="none" stroke="rgb(0,0,0)" paint-order="fill stroke markers" d=" M 195.7 181 L 195.7 190.6114049890704 M 195.7 67.6 L 195.7 180" stroke-opacity="0.1" stroke-miterlimit="10"/></g><g><path fill="none" stroke="rgb(0,0,0)" paint-order="fill stroke markers" d=" M 217.3 181 L 217.3 190.6114049890704 M 217.3 67.6 L 217.3 180" stroke-opacity="0.1" stroke-miterlimit="10"/></g><g><path fill="none" stroke="rgb(0,0,0)" paint-order="fill stroke markers" d=" M 238.9 181 L 238.9 190.6114049890704 M 238.9 67.6 L 238.9 180" stroke-opacity="0.1" stroke-miterlimit="10"/></g><g><path fill="none" stroke="rgb(0,0,0)" paint-order="fill stroke markers" d=" M 117.3 181 L 117.3 190.6114049890704 M 117.3 67.6 L 117.3 180" stroke-opacity="0.1" stroke-miterlimit="10"/></g><path fill="none" stroke="rgb(0,0,0)" paint-order="fill stroke markers" d=" M 45.6 180.5 L 261 180.5" stroke-opacity="0.1" stroke-miterlimit="10"/><g transform="translate(49.916611761276535,190.6114049890704) rotate(-50,0,0)"><text fill="#666" stroke="none" font-family="&quot;Roboto&quot;,&quot;Helvetica Neue&quot;,sans-serif" font-size="12px" font-style="normal" font-weight="normal" text-decoration="normal" x="0" y="0" text-anchor="end" dominant-baseline="central">01-07-2020</text></g><g transform="translate(71.30714843965738,190.6114049890704) rotate(-50,0,0)"><text fill="#666" stroke="none" font-family="&quot;Roboto&quot;,&quot;Helvetica Neue&quot;,sans-serif" font-size="12px" font-style="normal" font-weight="normal" text-decoration="normal" x="0" y="0" text-anchor="end" dominant-baseline="central">04-07-2020</text></g><g transform="translate(92.69768511803824,190.6114049890704) rotate(-50,0,0)"><text fill="#666" stroke="none" font-family="&quot;Roboto&quot;,&quot;Helvetica Neue&quot;,sans-serif" font-size="12px" font-style="normal" font-weight="normal" text-decoration="normal" x="0" y="0" text-anchor="end" dominant-baseline="central">07-07-2020</text></g><g transform="translate(114.08822179641908,190.6114049890704) rotate(-50,0,0)"><text fill="#666" stroke="none" font-family="&quot;Roboto&quot;,&quot;Helvetica Neue&quot;,sans-serif" font-size="12px" font-style="normal" font-weight="normal" text-decoration="normal" x="0" y="0" text-anchor="end" dominant-baseline="central">10-07-2020</text></g><g transform="translate(135.47875847479992,190.6114049890704) rotate(-50,0,0)"><text fill="#666" stroke="none" font-family="&quot;Roboto&quot;,&quot;Helvetica Neue&quot;,sans-serif" font-size="12px" font-style="normal" font-weight="normal" text-decoration="normal" x="0" y="0" text-anchor="end" dominant-baseline="central">13-07-2020</text></g><g transform="translate(156.8692951531808,190.6114049890704) rotate(-50,0,0)"><text fill="#666" stroke="none" font-family="&quot;Roboto&quot;,&quot;Helvetica Neue&quot;,sans-serif" font-size="12px" font-style="normal" font-weight="normal" text-decoration="normal" x="0" y="0" text-anchor="end" dominant-baseline="central">16-07-2020</text></g><g transform="translate(178.25983183156163,190.6114049890704) rotate(-50,0,0)"><text fill="#666" stroke="none" font-family="&quot;Roboto&quot;,&quot;Helvetica Neue&quot;,sans-serif" font-size="12px" font-style="normal" font-weight="normal" text-decoration="normal" x="0" y="0" text-anchor="end" dominant-baseline="central">19-07-2020</text></g><g transform="translate(199.65036850994247,190.6114049890704) rotate(-50,0,0)"><text fill="#666" stroke="none" font-family="&quot;Roboto&quot;,&quot;Helvetica Neue&quot;,sans-serif" font-size="12px" font-style="normal" font-weight="normal" text-decoration="normal" x="0" y="0" text-anchor="end" dominant-baseline="central">22-07-2020</text></g><g transform="translate(221.0409051883233,190.6114049890704) rotate(-50,0,0)"><text fill="#666" stroke="none" font-family="&quot;Roboto&quot;,&quot;Helvetica Neue&quot;,sans-serif" font-size="12px" font-style="normal" font-weight="normal" text-decoration="normal" x="0" y="0" text-anchor="end" dominant-baseline="central">25-07-2020</text></g><g transform="translate(242.43144186670415,190.6114049890704) rotate(-50,0,0)"><text fill="#666" stroke="none" font-family="&quot;Roboto&quot;,&quot;Helvetica Neue&quot;,sans-serif" font-size="12px" font-style="normal" font-weight="normal" text-decoration="normal" x="0" y="0" text-anchor="end" dominant-baseline="central">28-07-2020</text></g><g><path fill="none" stroke="rgb(0,0,0)" paint-order="fill stroke markers" d=" M 36.35152231487973 67.7 L 45.6 67.7 M 46.6 67.7 L 260.2568890986882 67.7" stroke-opacity="0.1" stroke-miterlimit="10"/></g><g><path fill="none" stroke="rgb(0,0,0)" paint-order="fill stroke markers" d=" M 36.35152231487973 83.7 L 45.6 83.7 M 46.6 83.7 L 260.2568890986882 83.7" stroke-opacity="0.1" stroke-miterlimit="10"/></g><g><path fill="none" stroke="rgb(0,0,0)" paint-order="fill stroke markers" d=" M 36.35152231487973 99.7 L 45.6 99.7 M 46.6 99.7 L 260.2568890986882 99.7" stroke-opacity="0.1" stroke-miterlimit="10"/></g><g><path fill="none" stroke="rgb(0,0,0)" paint-order="fill stroke markers" d=" M 36.35152231487973 115.7 L 45.6 115.7 M 46.6 115.7 L 260.2568890986882 115.7" stroke-opacity="0.1" stroke-miterlimit="10"/></g><g><path fill="none" stroke="rgb(0,0,0)" paint-order="fill stroke markers" d=" M 36.35152231487973 132.5 L 45.6 132.5 M 46.6 132.5 L 260.2568890986882 132.5" stroke-opacity="0.1" stroke-miterlimit="10"/></g><g><path fill="none" stroke="rgb(0,0,0)" paint-order="fill stroke markers" d=" M 36.35152231487973 148.5 L 45.6 148.5 M 46.6 148.5 L 260.2568890986882 148.5" stroke-opacity="0.1" stroke-miterlimit="10"/></g><g><path fill="none" stroke="rgb(0,0,0)" paint-order="fill stroke markers" d=" M 36.35152231487973 164.5 L 45.6 164.5 M 46.6 164.5 L 260.2568890986882 164.5" stroke-opacity="0.1" stroke-miterlimit="10"/></g><g><path fill="none" stroke="rgb(0,0,0)" paint-order="fill stroke markers" d=" M 36.35152231487973 180.5 L 45.6 180.5 M 46.6 180.5 L 260.2568890986882 180.5" stroke-opacity="0.25" stroke-miterlimit="10"/></g><path fill="none" stroke="rgb(0,0,0)" paint-order="fill stroke markers" d=" M 46.1 67.2 L 46.1 181" stroke-opacity="0.1" stroke-miterlimit="10"/><g transform="translate(36.35152231487973,67.6) rotate(0,0,0)"><text fill="#666" stroke="none" font-family="&quot;Roboto&quot;,&quot;Helvetica Neue&quot;,sans-serif" font-size="12px" font-style="normal" font-weight="normal" text-decoration="normal" x="0" y="0" text-anchor="end" dominant-baseline="central">350</text></g><g transform="translate(36.35152231487973,83.74448642701006) rotate(0,0,0)"><text fill="#666" stroke="none" font-family="&quot;Roboto&quot;,&quot;Helvetica Neue&quot;,sans-serif" font-size="12px" font-style="normal" font-weight="normal" text-decoration="normal" x="0" y="0" text-anchor="end" dominant-baseline="central">300</text></g><g transform="translate(36.35152231487973,99.8889728540201) rotate(0,0,0)"><text fill="#666" stroke="none" font-family="&quot;Roboto&quot;,&quot;Helvetica Neue&quot;,sans-serif" font-size="12px" font-style="normal" font-weight="normal" text-decoration="normal" x="0" y="0" text-anchor="end" dominant-baseline="central">250</text></g><g transform="translate(36.35152231487973,116.03345928103016) rotate(0,0,0)"><text fill="#666" stroke="none" font-family="&quot;Roboto&quot;,&quot;Helvetica Neue&quot;,sans-serif" font-size="12px" font-style="normal" font-weight="normal" text-decoration="normal" x="0" y="0" text-anchor="end" dominant-baseline="central">200</text></g><g transform="translate(36.35152231487973,132.17794570804023) rotate(0,0,0)"><text fill="#666" stroke="none" font-family="&quot;Roboto&quot;,&quot;Helvetica Neue&quot;,sans-serif" font-size="12px" font-style="normal" font-weight="normal" text-decoration="normal" x="0" y="0" text-anchor="end" dominant-baseline="central">150</text></g><g transform="translate(36.35152231487973,148.3224321350503) rotate(0,0,0)"><text fill="#666" stroke="none" font-family="&quot;Roboto&quot;,&quot;Helvetica Neue&quot;,sans-serif" font-size="12px" font-style="normal" font-weight="normal" text-decoration="normal" x="0" y="0" text-anchor="end" dominant-baseline="central">100</text></g><g transform="translate(36.35152231487973,164.46691856206036) rotate(0,0,0)"><text fill="#666" stroke="none" font-family="&quot;Roboto&quot;,&quot;Helvetica Neue&quot;,sans-serif" font-size="12px" font-style="normal" font-weight="normal" text-decoration="normal" x="0" y="0" text-anchor="end" dominant-baseline="central">50</text></g><g transform="translate(36.35152231487973,180.6114049890704) rotate(0,0,0)"><text fill="#666" stroke="none" font-family="&quot;Roboto&quot;,&quot;Helvetica Neue&quot;,sans-serif" font-size="12px" font-style="normal" font-weight="normal" text-decoration="normal" x="0" y="0" text-anchor="end" dominant-baseline="central">0</text></g><g ><g><rect fill="red" stroke="none" x="50.05921533913241" y="180.6114049890704" width="2.566864401405695" height="0"/><g ><g><path fill="7CB342" stroke="none" paint-order="stroke fill markers" d=" M 51.342647539835255 180.6114049890704 L 51.342647539835255 180.6114049890704 L 51.342647539835255 180.6114049890704 L 51.342647539835255 180.6114049890704 L 51.342647539835255 180.6114049890704 Z"/></g></g><rect fill="red" stroke="none" x="57.18939423192602" y="179.6427358034498" width="2.566864401405695" height="0.9686691856205982"/><g ><g><path fill="7CB342" stroke="none" paint-order="stroke fill markers" d=" M 58.47282643262887 180.12707039626008 L 58.47282643262887 180.12707039626008 L 58.47282643262887 180.61140498907037 L 58.47282643262887 180.61140498907037 L 58.47282643262887 180.12707039626008 Z"/></g></g><rect fill="red" stroke="none" x="64.31957312471964" y="179.96562553198999" width="2.566864401405695" height="0.6457794570804083"/><g ><g><path fill="7CB342" stroke="none" paint-order="stroke fill markers" d=" M 65.60300532542249 180.28851526053018 L 65.60300532542249 180.28851526053018 L 65.60300532542249 180.61140498907037 L 65.60300532542249 180.61140498907037 L 65.60300532542249 180.28851526053018 Z"/></g></g><rect fill="red" stroke="none" x="71.44975201751325" y="180.6114049890704" width="2.566864401405695" height="0"/><g ><g><path fill="7CB342" stroke="none" paint-order="stroke fill markers" d=" M 72.7331842182161 180.6114049890704 L 72.7331842182161 180.6114049890704 L 72.7331842182161 180.6114049890704 L 72.7331842182161 180.6114049890704 L 72.7331842182161 180.6114049890704 Z"/></g></g><rect fill="red" stroke="none" x="78.57993091030686" y="180.6114049890704" width="2.566864401405695" height="0"/><g ><g><path fill="7CB342" stroke="none" paint-order="stroke fill markers" d=" M 79.8633631110097 180.6114049890704 L 79.8633631110097 180.6114049890704 L 79.8633631110097 180.6114049890704 L 79.8633631110097 180.6114049890704 L 79.8633631110097 180.6114049890704 Z"/></g></g><rect fill="red" stroke="none" x="85.71010980310048" y="180.28851526053018" width="2.566864401405695" height="0.32288972854021836"/><g ><g><path fill="7CB342" stroke="none" paint-order="stroke fill markers" d=" M 86.99354200380333 180.44996012480027 L 86.99354200380333 180.44996012480027 L 86.99354200380333 180.61140498907037 L 86.99354200380333 180.61140498907037 L 86.99354200380333 180.44996012480027 Z"/></g></g><rect fill="red" stroke="none" x="92.8402886958941" y="178.0282871607488" width="2.566864401405695" height="2.5831178283216047"/><g ><g><path fill="7CB342" stroke="none" paint-order="stroke fill markers" d=" M 94.12372089659695 179.3198460749096 L 94.12372089659695 179.3198460749096 L 94.12372089659695 180.61140498907042 L 94.12372089659695 180.61140498907042 L 94.12372089659695 179.3198460749096 Z"/></g></g><rect fill="red" stroke="none" x="99.97046758868771" y="178.67406661782917" width="2.566864401405695" height="1.9373383712412249"/><g ><g><path fill="7CB342" stroke="none" paint-order="stroke fill markers" d=" M 101.25389978939056 179.6427358034498 L 101.25389978939056 179.6427358034498 L 101.25389978939056 180.61140498907042 L 101.25389978939056 180.61140498907042 L 101.25389978939056 179.6427358034498 Z"/></g></g><rect fill="red" stroke="none" x="107.10064648148132" y="179.6427358034498" width="2.566864401405695" height="0.9686691856205982"/><g ><g><path fill="7CB342" stroke="none" paint-order="stroke fill markers" d=" M 108.38407868218417 180.12707039626008 L 108.38407868218417 180.12707039626008 L 108.38407868218417 180.61140498907037 L 108.38407868218417 180.61140498907037 L 108.38407868218417 180.12707039626008 Z"/></g></g><rect fill="red" stroke="none" x="114.23082537427494" y="179.6427358034498" width="2.566864401405695" height="0.9686691856205982"/><g ><g><path fill="7CB342" stroke="none" paint-order="stroke fill markers" d=" M 115.51425757497779 180.12707039626008 L 115.51425757497779 180.12707039626008 L 115.51425757497779 180.61140498907037 L 115.51425757497779 180.61140498907037 L 115.51425757497779 180.12707039626008 Z"/></g></g><rect fill="red" stroke="none" x="121.36100426706855" y="179.6427358034498" width="2.566864401405695" height="0.9686691856205982"/><g ><g><path fill="7CB342" stroke="none" paint-order="stroke fill markers" d=" M 122.6444364677714 180.12707039626008 L 122.6444364677714 180.12707039626008 L 122.6444364677714 180.61140498907037 L 122.6444364677714 180.61140498907037 L 122.6444364677714 180.12707039626008 Z"/></g></g><rect fill="red" stroke="none" x="128.4911831598622" y="180.6114049890704" width="2.5668644014056667" height="0"/><g ><g><path fill="7CB342" stroke="none" paint-order="stroke fill markers" d=" M 129.77461536056504 180.6114049890704 L 129.77461536056504 180.6114049890704 L 129.77461536056504 180.6114049890704 L 129.77461536056504 180.6114049890704 L 129.77461536056504 180.6114049890704 Z"/></g></g><rect fill="red" stroke="none" x="135.6213620526558" y="180.6114049890704" width="2.5668644014056667" height="0"/><g ><g><path fill="7CB342" stroke="none" paint-order="stroke fill markers" d=" M 136.90479425335863 180.6114049890704 L 136.90479425335863 180.6114049890704 L 136.90479425335863 180.6114049890704 L 136.90479425335863 180.6114049890704 L 136.90479425335863 180.6114049890704 Z"/></g></g><rect fill="red" stroke="none" x="142.75154094544942" y="179.3198460749096" width="2.5668644014056667" height="1.2915589141607882"/><g ><g><path fill="7CB342" stroke="none" paint-order="stroke fill markers" d=" M 144.03497314615225 179.96562553198999 L 144.03497314615225 179.96562553198999 L 144.03497314615225 180.61140498907037 L 144.03497314615225 180.61140498907037 L 144.03497314615225 179.96562553198999 Z"/></g></g><rect fill="red" stroke="none" x="149.88171983824304" y="178.67406661782917" width="2.5668644014056667" height="1.9373383712412249"/><g ><g><path fill="7CB342" stroke="none" paint-order="stroke fill markers" d=" M 151.16515203894588 179.6427358034498 L 151.16515203894588 179.6427358034498 L 151.16515203894588 180.61140498907042 L 151.16515203894588 180.61140498907042 L 151.16515203894588 179.6427358034498 Z"/></g></g><rect fill="red" stroke="none" x="157.01189873103667" y="179.6427358034498" width="2.5668644014056667" height="0.9686691856205982"/><g ><g><path fill="7CB342" stroke="none" paint-order="stroke fill markers" d=" M 158.2953309317395 180.12707039626008 L 158.2953309317395 180.12707039626008 L 158.2953309317395 180.61140498907037 L 158.2953309317395 180.61140498907037 L 158.2953309317395 180.12707039626008 Z"/></g></g><rect fill="red" stroke="none" x="164.1420776238303" y="180.6114049890704" width="2.5668644014056667" height="0"/><g ><g><path fill="7CB342" stroke="none" paint-order="stroke fill markers" d=" M 165.42550982453312 180.6114049890704 L 165.42550982453312 180.6114049890704 L 165.42550982453312 180.6114049890704 L 165.42550982453312 180.6114049890704 L 165.42550982453312 180.6114049890704 Z"/></g></g><rect fill="red" stroke="none" x="171.27225651662388" y="180.28851526053018" width="2.5668644014056667" height="0.32288972854021836"/><g ><g><path fill="7CB342" stroke="none" paint-order="stroke fill markers" d=" M 172.55568871732672 180.44996012480027 L 172.55568871732672 180.44996012480027 L 172.55568871732672 180.61140498907037 L 172.55568871732672 180.61140498907037 L 172.55568871732672 180.44996012480027 Z"/></g></g><rect fill="red" stroke="none" x="178.4024354094175" y="180.28851526053018" width="2.5668644014056667" height="0.32288972854021836"/><g ><g><path fill="7CB342" stroke="none" paint-order="stroke fill markers" d=" M 179.68586761012034 180.44996012480027 L 179.68586761012034 180.44996012480027 L 179.68586761012034 180.61140498907037 L 179.68586761012034 180.61140498907037 L 179.68586761012034 180.44996012480027 Z"/></g></g><rect fill="red" stroke="none" x="185.5326143022111" y="179.96562553198999" width="2.5668644014056667" height="0.6457794570804083"/><g ><g><path fill="7CB342" stroke="none" paint-order="stroke fill markers" d=" M 186.81604650291393 180.28851526053018 L 186.81604650291393 180.28851526053018 L 186.81604650291393 180.61140498907037 L 186.81604650291393 180.61140498907037 L 186.81604650291393 180.28851526053018 Z"/></g></g><rect fill="red" stroke="none" x="192.66279319500472" y="179.6427358034498" width="2.5668644014056667" height="0.9686691856205982"/><g ><g><path fill="7CB342" stroke="none" paint-order="stroke fill markers" d=" M 193.94622539570756 180.12707039626008 L 193.94622539570756 180.12707039626008 L 193.94622539570756 180.61140498907037 L 193.94622539570756 180.61140498907037 L 193.94622539570756 180.12707039626008 Z"/></g></g><rect fill="red" stroke="none" x="199.79297208779835" y="180.28851526053018" width="2.5668644014056667" height="0.32288972854021836"/><g ><g><path fill="7CB342" stroke="none" paint-order="stroke fill markers" d=" M 201.07640428850118 180.44996012480027 L 201.07640428850118 180.44996012480027 L 201.07640428850118 180.61140498907037 L 201.07640428850118 180.61140498907037 L 201.07640428850118 180.44996012480027 Z"/></g></g><rect fill="red" stroke="none" x="206.92315098059197" y="180.6114049890704" width="2.5668644014056667" height="0"/><g ><g><path fill="7CB342" stroke="none" paint-order="stroke fill markers" d=" M 208.2065831812948 180.6114049890704 L 208.2065831812948 180.6114049890704 L 208.2065831812948 180.6114049890704 L 208.2065831812948 180.6114049890704 L 208.2065831812948 180.6114049890704 Z"/></g></g><rect fill="red" stroke="none" x="214.05332987338556" y="180.28851526053018" width="2.5668644014056667" height="0.32288972854021836"/><g ><g><path fill="7CB342" stroke="none" paint-order="stroke fill markers" d=" M 215.3367620740884 180.44996012480027 L 215.3367620740884 180.44996012480027 L 215.3367620740884 180.61140498907037 L 215.3367620740884 180.61140498907037 L 215.3367620740884 180.44996012480027 Z"/></g></g><rect fill="red" stroke="none" x="221.1835087661792" y="180.28851526053018" width="2.5668644014056667" height="0.32288972854021836"/><g ><g><path fill="7CB342" stroke="none" paint-order="stroke fill markers" d=" M 222.46694096688202 180.44996012480027 L 222.46694096688202 180.44996012480027 L 222.46694096688202 180.61140498907037 L 222.46694096688202 180.61140498907037 L 222.46694096688202 180.44996012480027 Z"/></g></g><rect fill="red" stroke="none" x="228.3136876589728" y="180.6114049890704" width="2.5668644014056667" height="0"/><g ><g><path fill="7CB342" stroke="none" paint-order="stroke fill markers" d=" M 229.59711985967564 180.6114049890704 L 229.59711985967564 180.6114049890704 L 229.59711985967564 180.6114049890704 L 229.59711985967564 180.6114049890704 L 229.59711985967564 180.6114049890704 Z"/></g></g><rect fill="red" stroke="none" x="235.4438665517664" y="179.96562553198999" width="2.5668644014056667" height="0.6457794570804083"/><g ><g><path fill="7CB342" stroke="none" paint-order="stroke fill markers" d=" M 236.72729875246924 180.28851526053018 L 236.72729875246924 180.28851526053018 L 236.72729875246924 180.61140498907037 L 236.72729875246924 180.61140498907037 L 236.72729875246924 180.28851526053018 Z"/></g></g><rect fill="red" stroke="none" x="242.57404544456003" y="179.3198460749096" width="2.5668644014056667" height="1.2915589141607882"/><g ><g><path fill="7CB342" stroke="none" paint-order="stroke fill markers" d=" M 243.85747764526286 179.96562553198999 L 243.85747764526286 179.96562553198999 L 243.85747764526286 180.61140498907037 L 243.85747764526286 180.61140498907037 L 243.85747764526286 179.96562553198999 Z"/></g></g><rect fill="red" stroke="none" x="249.70422433735365" y="180.28851526053018" width="2.5668644014056667" height="0.32288972854021836"/><g ><g><path fill="7CB342" stroke="none" paint-order="stroke fill markers" d=" M 250.98765653805648 180.44996012480027 L 250.98765653805648 180.44996012480027 L 250.98765653805648 180.61140498907037 L 250.98765653805648 180.61140498907037 L 250.98765653805648 180.44996012480027 Z"/></g></g><rect fill="red" stroke="none" x="256.83440323014725" y="180.28851526053018" width="2.5668644014057236" height="0.32288972854021836"/><g ><g><path fill="7CB342" stroke="none" paint-order="stroke fill markers" d=" M 258.1178354308501 180.44996012480027 L 258.1178354308501 180.44996012480027 L 258.1178354308501 180.61140498907037 L 258.1178354308501 180.61140498907037 L 258.1178354308501 180.44996012480027 Z"/></g></g></g></g><g ><g><rect fill="green" stroke="none" x="47.20714378201497" y="150.90554996337187" width="2.566864401405695" height="29.705855025698526"/><g ><g><path fill="9CCC65" stroke="none" paint-order="stroke fill markers" d=" M 48.490575982717814 152.90554996337187 L 48.490575982717814 152.90554996337187 L 48.490575982717814 180.6114049890704 L 48.490575982717814 180.6114049890704 L 48.490575982717814 152.90554996337187 Z"/></g></g><rect fill="green" stroke="none" x="54.33732267480858" y="84.71315561263066" width="2.566864401405695" height="95.89824937643974"/><g ><g><path fill="9CCC65" stroke="none" paint-order="stroke fill markers" d=" M 55.62075487551143 86.71315561263066 L 55.62075487551143 86.71315561263066 L 55.62075487551143 180.6114049890704 L 55.62075487551143 180.6114049890704 L 55.62075487551143 86.71315561263066 Z"/></g></g><rect fill="green" stroke="none" x="61.467501567602206" y="175.44516933242716" width="2.566864401405688" height="5.166235656643238"/><g ><g><path fill="9CCC65" stroke="none" paint-order="stroke fill markers" d=" M 62.750933768305046 177.44516933242716 L 62.750933768305046 177.44516933242716 L 62.750933768305046 180.6114049890704 L 62.750933768305046 180.6114049890704 L 62.750933768305046 177.44516933242716 Z"/></g></g><rect fill="green" stroke="none" x="68.59768046039581" y="180.28851526053018" width="2.566864401405695" height="0.32288972854021836"/><g ><g><path fill="9CCC65" stroke="none" paint-order="stroke fill markers" d=" M 69.88111266109865 180.44996012480027 L 69.88111266109865 180.44996012480027 L 69.88111266109865 180.61140498907037 L 69.88111266109865 180.61140498907037 L 69.88111266109865 180.44996012480027 Z"/></g></g><rect fill="green" stroke="none" x="75.72785935318942" y="180.28851526053018" width="2.566864401405695" height="0.32288972854021836"/><g ><g><path fill="9CCC65" stroke="none" paint-order="stroke fill markers" d=" M 77.01129155389226 180.44996012480027 L 77.01129155389226 180.44996012480027 L 77.01129155389226 180.61140498907037 L 77.01129155389226 180.61140498907037 L 77.01129155389226 180.44996012480027 Z"/></g></g><rect fill="green" stroke="none" x="82.85803824598304" y="82.77581724138945" width="2.566864401405695" height="97.83558774768095"/><g ><g><path fill="9CCC65" stroke="none" paint-order="stroke fill markers" d=" M 84.14147044668589 84.77581724138945 L 84.14147044668589 84.77581724138945 L 84.14147044668589 180.6114049890704 L 84.14147044668589 180.6114049890704 L 84.14147044668589 84.77581724138945 Z"/></g></g><rect fill="green" stroke="none" x="89.98821713877666" y="75.02646375642462" width="2.566864401405695" height="105.58494123264578"/><g ><g><path fill="9CCC65" stroke="none" paint-order="stroke fill markers" d=" M 91.27164933947951 77.02646375642462 L 91.27164933947951 77.02646375642462 L 91.27164933947951 180.6114049890704 L 91.27164933947951 180.6114049890704 L 91.27164933947951 77.02646375642462 Z"/></g></g><rect fill="green" stroke="none" x="97.11839603157027" y="82.13003778430904" width="2.566864401405695" height="98.48136720476136"/><g ><g><path fill="9CCC65" stroke="none" paint-order="stroke fill markers" d=" M 98.40182823227312 84.13003778430904 L 98.40182823227312 84.13003778430904 L 98.40182823227312 180.6114049890704 L 98.40182823227312 180.6114049890704 L 98.40182823227312 84.13003778430904 Z"/></g></g><rect fill="green" stroke="none" x="104.24857492436388" y="168.98737476162316" width="2.566864401405695" height="11.624030227447236"/><g ><g><path fill="9CCC65" stroke="none" paint-order="stroke fill markers" d=" M 105.53200712506673 170.98737476162316 L 105.53200712506673 170.98737476162316 L 105.53200712506673 180.6114049890704 L 105.53200712506673 180.6114049890704 L 105.53200712506673 170.98737476162316 Z"/></g></g><rect fill="green" stroke="none" x="111.3787538171575" y="92.13961936905528" width="2.566864401405695" height="88.47178562001511"/><g ><g><path fill="9CCC65" stroke="none" paint-order="stroke fill markers" d=" M 112.66218601786035 94.13961936905528 L 112.66218601786035 94.13961936905528 L 112.66218601786035 180.6114049890704 L 112.66218601786035 180.6114049890704 L 112.66218601786035 94.13961936905528 Z"/></g></g><rect fill="green" stroke="none" x="118.50893270995111" y="99.5660831254799" width="2.566864401405695" height="81.04532186359049"/><g ><g><path fill="9CCC65" stroke="none" paint-order="stroke fill markers" d=" M 119.79236491065396 101.5660831254799 L 119.79236491065396 101.5660831254799 L 119.79236491065396 180.6114049890704 L 119.79236491065396 180.6114049890704 L 119.79236491065396 101.5660831254799 Z"/></g></g><rect fill="green" stroke="none" x="125.63911160274475" y="179.6427358034498" width="2.566864401405695" height="0.9686691856205982"/><g ><g><path fill="9CCC65" stroke="none" paint-order="stroke fill markers" d=" M 126.9225438034476 180.12707039626008 L 126.9225438034476 180.12707039626008 L 126.9225438034476 180.61140498907037 L 126.9225438034476 180.61140498907037 L 126.9225438034476 180.12707039626008 Z"/></g></g><rect fill="green" stroke="none" x="132.76929049553837" y="173.50783096118596" width="2.5668644014056667" height="7.103574027884434"/><g ><g><path fill="9CCC65" stroke="none" paint-order="stroke fill markers" d=" M 134.0527226962412 175.50783096118596 L 134.0527226962412 175.50783096118596 L 134.0527226962412 180.6114049890704 L 134.0527226962412 180.6114049890704 L 134.0527226962412 175.50783096118596 Z"/></g></g><rect fill="green" stroke="none" x="139.899469388332" y="88.91072208365327" width="2.5668644014056667" height="91.70068290541712"/><g ><g><path fill="9CCC65" stroke="none" paint-order="stroke fill markers" d=" M 141.18290158903483 90.91072208365327 L 141.18290158903483 90.91072208365327 L 141.18290158903483 180.6114049890704 L 141.18290158903483 180.6114049890704 L 141.18290158903483 90.91072208365327 Z"/></g></g><rect fill="green" stroke="none" x="147.02964828112562" y="169.31026449016338" width="2.5668644014056667" height="11.301140498907017"/><g ><g><path fill="9CCC65" stroke="none" paint-order="stroke fill markers" d=" M 148.31308048182845 171.31026449016338 L 148.31308048182845 171.31026449016338 L 148.31308048182845 180.6114049890704 L 148.31308048182845 180.6114049890704 L 148.31308048182845 171.31026449016338 Z"/></g></g><rect fill="green" stroke="none" x="154.15982717391924" y="81.80714805576883" width="2.5668644014056667" height="98.80425693330156"/><g ><g><path fill="9CCC65" stroke="none" paint-order="stroke fill markers" d=" M 155.44325937462207 83.80714805576883 L 155.44325937462207 83.80714805576883 L 155.44325937462207 180.6114049890704 L 155.44325937462207 180.6114049890704 L 155.44325937462207 83.80714805576883 Z"/></g></g><rect fill="green" stroke="none" x="161.29000606671286" y="174.15361041826637" width="2.5668644014056667" height="6.457794570804026"/><g ><g><path fill="9CCC65" stroke="none" paint-order="stroke fill markers" d=" M 162.5734382674157 176.15361041826637 L 162.5734382674157 176.15361041826637 L 162.5734382674157 180.6114049890704 L 162.5734382674157 180.6114049890704 L 162.5734382674157 176.15361041826637 Z"/></g></g><rect fill="green" stroke="none" x="168.42018495950646" y="99.24319339693972" width="2.5668644014056667" height="81.36821159213068"/><g ><g><path fill="9CCC65" stroke="none" paint-order="stroke fill markers" d=" M 169.7036171602093 101.24319339693972 L 169.7036171602093 101.24319339693972 L 169.7036171602093 180.6114049890704 L 169.7036171602093 180.6114049890704 L 169.7036171602093 101.24319339693972 Z"/></g></g><rect fill="green" stroke="none" x="175.55036385230008" y="178.67406661782917" width="2.5668644014056667" height="1.9373383712412249"/><g ><g><path fill="9CCC65" stroke="none" paint-order="stroke fill markers" d=" M 176.8337960530029 179.6427358034498 L 176.8337960530029 179.6427358034498 L 176.8337960530029 180.61140498907042 L 176.8337960530029 180.61140498907042 L 176.8337960530029 179.6427358034498 Z"/></g></g><rect fill="green" stroke="none" x="182.68054274509367" y="75.34935348496482" width="2.5668644014056667" height="105.26205150410557"/><g ><g><path fill="9CCC65" stroke="none" paint-order="stroke fill markers" d=" M 183.9639749457965 77.34935348496482 L 183.9639749457965 77.34935348496482 L 183.9639749457965 180.6114049890704 L 183.9639749457965 180.6114049890704 L 183.9639749457965 77.34935348496482 Z"/></g></g><rect fill="green" stroke="none" x="189.8107216378873" y="80.51558914160805" width="2.5668644014056667" height="100.09581584746235"/><g ><g><path fill="9CCC65" stroke="none" paint-order="stroke fill markers" d=" M 191.09415383859013 82.51558914160805 L 191.09415383859013 82.51558914160805 L 191.09415383859013 180.6114049890704 L 191.09415383859013 180.6114049890704 L 191.09415383859013 82.51558914160805 Z"/></g></g><rect fill="green" stroke="none" x="196.94090053068092" y="94.39984746883668" width="2.5668644014056667" height="86.21155752023371"/><g ><g><path fill="9CCC65" stroke="none" paint-order="stroke fill markers" d=" M 198.22433273138375 96.39984746883668 L 198.22433273138375 96.39984746883668 L 198.22433273138375 180.6114049890704 L 198.22433273138375 180.6114049890704 L 198.22433273138375 96.39984746883668 Z"/></g></g><rect fill="green" stroke="none" x="204.07107942347454" y="96.9829652971583" width="2.5668644014056667" height="83.62843969191209"/><g ><g><path fill="9CCC65" stroke="none" paint-order="stroke fill markers" d=" M 205.35451162417738 98.9829652971583 L 205.35451162417738 98.9829652971583 L 205.35451162417738 180.6114049890704 L 205.35451162417738 180.6114049890704 L 205.35451162417738 98.9829652971583 Z"/></g></g><rect fill="green" stroke="none" x="211.20125831626814" y="90.84806045489448" width="2.5668644014056667" height="89.76334453417591"/><g ><g><path fill="9CCC65" stroke="none" paint-order="stroke fill markers" d=" M 212.48469051697097 92.84806045489448 L 212.48469051697097 92.84806045489448 L 212.48469051697097 180.6114049890704 L 212.48469051697097 180.6114049890704 L 212.48469051697097 92.84806045489448 Z"/></g></g><rect fill="green" stroke="none" x="218.33143720906176" y="102.79498041088192" width="2.5668644014056667" height="77.81642457818847"/><g ><g><path fill="9CCC65" stroke="none" paint-order="stroke fill markers" d=" M 219.6148694097646 104.79498041088192 L 219.6148694097646 104.79498041088192 L 219.6148694097646 180.6114049890704 L 219.6148694097646 180.6114049890704 L 219.6148694097646 104.79498041088192 Z"/></g></g><rect fill="green" stroke="none" x="225.46161610185538" y="178.9969563463694" width="2.5668644014056667" height="1.6144486427010065"/><g ><g><path fill="9CCC65" stroke="none" paint-order="stroke fill markers" d=" M 226.74504830255822 179.8041806677199 L 226.74504830255822 179.8041806677199 L 226.74504830255822 180.6114049890704 L 226.74504830255822 180.6114049890704 L 226.74504830255822 179.8041806677199 Z"/></g></g><rect fill="green" stroke="none" x="232.59179499464898" y="172.86205150410558" width="2.5668644014056667" height="7.749353484964814"/><g ><g><path fill="9CCC65" stroke="none" paint-order="stroke fill markers" d=" M 233.8752271953518 174.86205150410558 L 233.8752271953518 174.86205150410558 L 233.8752271953518 180.6114049890704 L 233.8752271953518 180.6114049890704 L 233.8752271953518 174.86205150410558 Z"/></g></g><rect fill="green" stroke="none" x="239.7219738874426" y="91.81672964051508" width="2.5668644014056667" height="88.79467534855532"/><g ><g><path fill="9CCC65" stroke="none" paint-order="stroke fill markers" d=" M 241.00540608814543 93.81672964051508 L 241.00540608814543 93.81672964051508 L 241.00540608814543 180.6114049890704 L 241.00540608814543 180.6114049890704 L 241.00540608814543 93.81672964051508 Z"/></g></g><rect fill="green" stroke="none" x="246.85215278023622" y="88.91072208365327" width="2.5668644014056667" height="91.70068290541712"/><g ><g><path fill="9CCC65" stroke="none" paint-order="stroke fill markers" d=" M 248.13558498093906 90.91072208365327 L 248.13558498093906 90.91072208365327 L 248.13558498093906 180.6114049890704 L 248.13558498093906 180.6114049890704 L 248.13558498093906 90.91072208365327 Z"/></g></g><rect fill="green" stroke="none" x="253.98233167302982" y="98.2745242113191" width="2.5668644014056667" height="82.33688077775129"/><g ><g><path fill="9CCC65" stroke="none" paint-order="stroke fill markers" d=" M 255.26576387373265 100.2745242113191 L 255.26576387373265 100.2745242113191 L 255.26576387373265 180.6114049890704 L 255.26576387373265 180.6114049890704 L 255.26576387373265 100.2745242113191 Z"/></g></g></g></g></g></svg>