<svg version="1.1" xmlns="http://www.w3.org/2000/svg" xmlns:xlink="http://www.w3.org/1999/xlink" width="265" height="244"><defs><clipPath id="TaQNfcNcWJBs"><path fill="none" stroke="none"/></clipPath><clipPath id="XEgudVBwHJCW"><path fill="none" stroke="none"/></clipPath><clipPath id="cNkJsLETiyPG"><path fill="none" stroke="none"/></clipPath></defs><g><g><rect fill="rgb(0,0,0)" stroke="none" x="86.8701171875" y="45.6" width="40" height="12" fill-opacity="0"/><rect fill="none" stroke="hsla(0, 60%, 60%, 1)" x="86.8701171875" y="45.6" width="40" height="12" stroke-miterlimit="10" stroke-width="3"/></g><text fill="#666" stroke="none" font-family="&quot;Roboto&quot;,&quot;Helvetica Neue&quot;,sans-serif" font-size="12px" font-style="normal" font-weight="normal" text-decoration="normal" x="132.8701171875" y="51.6" text-anchor="start" dominant-baseline="central">Average</text><g><rect fill="rgb(0,0,0)" stroke="none" x="41.7490234375" y="67.6" width="40" height="12" fill-opacity="0"/><rect fill="none" stroke="hsla(120, 60%, 60%, 1)" x="41.7490234375" y="67.6" width="40" height="12" stroke-miterlimit="10" stroke-width="3"/></g><text fill="#666" stroke="none" font-family="&quot;Roboto&quot;,&quot;Helvetica Neue&quot;,sans-serif" font-size="12px" font-style="normal" font-weight="normal" text-decoration="normal" x="87.7490234375" y="73.6" text-anchor="start" dominant-baseline="central">Min(operation_duration)</text><g><rect fill="rgb(0,0,0)" stroke="none" x="40.2783203125" y="89.6" width="40" height="12" fill-opacity="0"/><rect fill="none" stroke="hsla(240, 60%, 60%, 1)" x="40.2783203125" y="89.6" width="40" height="12" stroke-miterlimit="10" stroke-width="3"/></g><text fill="#666" stroke="none" font-family="&quot;Roboto&quot;,&quot;Helvetica Neue&quot;,sans-serif" font-size="12px" font-style="normal" font-weight="normal" text-decoration="normal" x="86.2783203125" y="95.6" text-anchor="start" dominant-baseline="central">Max(operation_duration)</text><g transform="translate(132.5,17.8) rotate(0,0,0)"><text fill="#000000" stroke="none" font-family="&quot;Roboto&quot;,&quot;Helvetica Neue&quot;,sans-serif" font-size="13px" font-style="normal" font-weight="bold" text-decoration="normal" x="0" y="0" text-anchor="middle" dominant-baseline="central"></text></g><g><path fill="none" stroke="rgb(0,0,0)" paint-order="fill stroke markers" d=" M 37.3 214.6 L 37.3 223.84 M 37.3 111.6 L 37.3 213.6" stroke-opacity="0.25" stroke-miterlimit="10"/></g><g><path fill="none" stroke="rgb(0,0,0)" paint-order="fill stroke markers" d=" M 106.9 214.6 L 106.9 223.84 M 106.9 111.6 L 106.9 213.6" stroke-opacity="0.1" stroke-miterlimit="10"/></g><g><path fill="none" stroke="rgb(0,0,0)" paint-order="fill stroke markers" d=" M 177.3 214.6 L 177.3 223.84 M 177.3 111.6 L 177.3 213.6" stroke-opacity="0.1" stroke-miterlimit="10"/></g><g><path fill="none" stroke="rgb(0,0,0)" paint-order="fill stroke markers" d=" M 247.7 214.6 L 247.7 223.84 M 247.7 111.6 L 247.7 213.6" stroke-opacity="0.1" stroke-miterlimit="10"/></g><path fill="none" stroke="rgb(0,0,0)" paint-order="fill stroke markers" d=" M 36.8 214.1 L 248.2 214.1" stroke-opacity="0.1" stroke-miterlimit="10"/><g transform="translate(36.91234375,223.84) rotate(0,0,0)"><text fill="#666" stroke="none" font-family="&quot;Roboto&quot;,&quot;Helvetica Neue&quot;,sans-serif" font-size="12px" font-style="normal" font-weight="normal" text-decoration="normal" x="0" y="7.199999999999999" text-anchor="middle" dominant-baseline="central">Create</text></g><g transform="translate(107.07307291666666,223.84) rotate(0,0,0)"><text fill="#666" stroke="none" font-family="&quot;Roboto&quot;,&quot;Helvetica Neue&quot;,sans-serif" font-size="12px" font-style="normal" font-weight="normal" text-decoration="normal" x="0" y="7.199999999999999" text-anchor="middle" dominant-baseline="central">Login</text></g><g transform="translate(177.23380208333333,223.84) rotate(0,0,0)"><text fill="#666" stroke="none" font-family="&quot;Roboto&quot;,&quot;Helvetica Neue&quot;,sans-serif" font-size="12px" font-style="normal" font-weight="normal" text-decoration="normal" x="0" y="7.199999999999999" text-anchor="middle" dominant-baseline="central">Logout</text></g><g transform="translate(247.39453125,223.84) rotate(0,0,0)"><text fill="#666" stroke="none" font-family="&quot;Roboto&quot;,&quot;Helvetica Neue&quot;,sans-serif" font-size="12px" font-style="normal" font-weight="normal" text-decoration="normal" x="0" y="7.199999999999999" text-anchor="middle" dominant-baseline="central">Open</text></g><g><path fill="none" stroke="rgb(0,0,0)" paint-order="fill stroke markers" d=" M 26.912343749999998 111.7 L 36.8 111.7 M 37.8 111.7 L 247.39453125 111.7" stroke-opacity="0.1" stroke-miterlimit="10"/></g><g><path fill="none" stroke="rgb(0,0,0)" paint-order="fill stroke markers" d=" M 26.912343749999998 128.5 L 36.8 128.5 M 37.8 128.5 L 247.39453125 128.5" stroke-opacity="0.1" stroke-miterlimit="10"/></g><g><path fill="none" stroke="rgb(0,0,0)" paint-order="fill stroke markers" d=" M 26.912343749999998 145.3 L 36.8 145.3 M 37.8 145.3 L 247.39453125 145.3" stroke-opacity="0.1" stroke-miterlimit="10"/></g><g><path fill="none" stroke="rgb(0,0,0)" paint-order="fill stroke markers" d=" M 26.912343749999998 162.9 L 36.8 162.9 M 37.8 162.9 L 247.39453125 162.9" stroke-opacity="0.1" stroke-miterlimit="10"/></g><g><path fill="none" stroke="rgb(0,0,0)" paint-order="fill stroke markers" d=" M 26.912343749999998 179.7 L 36.8 179.7 M 37.8 179.7 L 247.39453125 179.7" stroke-opacity="0.1" stroke-miterlimit="10"/></g><g><path fill="none" stroke="rgb(0,0,0)" paint-order="fill stroke markers" d=" M 26.912343749999998 196.5 L 36.8 196.5 M 37.8 196.5 L 247.39453125 196.5" stroke-opacity="0.1" stroke-miterlimit="10"/></g><g><path fill="none" stroke="rgb(0,0,0)" paint-order="fill stroke markers" d=" M 26.912343749999998 214.1 L 36.8 214.1 M 37.8 214.1 L 247.39453125 214.1" stroke-opacity="0.25" stroke-miterlimit="10"/></g><path fill="none" stroke="rgb(0,0,0)" paint-order="fill stroke markers" d=" M 37.3 111.2 L 37.3 214.6" stroke-opacity="0.1" stroke-miterlimit="10"/><g transform="translate(26.912343749999998,111.6) rotate(0,0,0)"><text fill="#666" stroke="none" font-family="&quot;Roboto&quot;,&quot;Helvetica Neue&quot;,sans-serif" font-size="12px" font-style="normal" font-weight="normal" text-decoration="normal" x="0" y="0" text-anchor="end" dominant-baseline="central">120</text></g><g transform="translate(26.912343749999998,128.64) rotate(0,0,0)"><text fill="#666" stroke="none" font-family="&quot;Roboto&quot;,&quot;Helvetica Neue&quot;,sans-serif" font-size="12px" font-style="normal" font-weight="normal" text-decoration="normal" x="0" y="0" text-anchor="end" dominant-baseline="central">100</text></g><g transform="translate(26.912343749999998,145.68) rotate(0,0,0)"><text fill="#666" stroke="none" font-family="&quot;Roboto&quot;,&quot;Helvetica Neue&quot;,sans-serif" font-size="12px" font-style="normal" font-weight="normal" text-decoration="normal" x="0" y="0" text-anchor="end" dominant-baseline="central">80</text></g><g transform="translate(26.912343749999998,162.72) rotate(0,0,0)"><text fill="#666" stroke="none" font-family="&quot;Roboto&quot;,&quot;Helvetica Neue&quot;,sans-serif" font-size="12px" font-style="normal" font-weight="normal" text-decoration="normal" x="0" y="0" text-anchor="end" dominant-baseline="central">60</text></g><g transform="translate(26.912343749999998,179.76) rotate(0,0,0)"><text fill="#666" stroke="none" font-family="&quot;Roboto&quot;,&quot;Helvetica Neue&quot;,sans-serif" font-size="12px" font-style="normal" font-weight="normal" text-decoration="normal" x="0" y="0" text-anchor="end" dominant-baseline="central">40</text></g><g transform="translate(26.912343749999998,196.8) rotate(0,0,0)"><text fill="#666" stroke="none" font-family="&quot;Roboto&quot;,&quot;Helvetica Neue&quot;,sans-serif" font-size="12px" font-style="normal" font-weight="normal" text-decoration="normal" x="0" y="0" text-anchor="end" dominant-baseline="central">20</text></g><g transform="translate(26.912343749999998,213.84) rotate(0,0,0)"><text fill="#666" stroke="none" font-family="&quot;Roboto&quot;,&quot;Helvetica Neue&quot;,sans-serif" font-size="12px" font-style="normal" font-weight="normal" text-decoration="normal" x="0" y="0" text-anchor="end" dominant-baseline="central">0</text></g><g ><g><g><path fill="none" stroke="hsla(240, 60%, 60%, 1)" paint-order="fill stroke markers" d=" M 36.91234375 128.64 C 64.97663541666667 128.64 79.11148835382201 130.33776385810867 107.07307291666666 128.64 C 135.24007168715536 126.92976385810867 149.46889743207728 118.4341780990705 177.23380208333333 120.12 C 205.5974807654106 121.8421780990705 219.33023958333334 130.344 247.39453125 137.16" stroke-miterlimit="10" stroke-width="3"/></g></g></g><path fill="hsla(240, 60%, 60%, 1)" stroke="hsla(240, 60%, 60%, 1)" paint-order="fill stroke markers" d=" M 39.91234375 128.64 A 3 3 0 1 1 39.91234225000012 128.6370000005 Z" stroke-miterlimit="10"/><path fill="hsla(240, 60%, 60%, 1)" stroke="hsla(240, 60%, 60%, 1)" paint-order="fill stroke markers" d=" M 110.07307291666666 128.64 A 3 3 0 1 1 110.07307141666679 128.6370000005 Z" stroke-miterlimit="10"/><path fill="hsla(240, 60%, 60%, 1)" stroke="hsla(240, 60%, 60%, 1)" paint-order="fill stroke markers" d=" M 180.23380208333333 120.12 A 3 3 0 1 1 180.23380058333345 120.1170000005 Z" stroke-miterlimit="10"/><path fill="hsla(240, 60%, 60%, 1)" stroke="hsla(240, 60%, 60%, 1)" paint-order="fill stroke markers" d=" M 250.39453125 137.16 A 3 3 0 1 1 250.39452975000012 137.1570000005 Z" stroke-miterlimit="10"/><g ><g><g><path fill="none" stroke="hsla(120, 60%, 60%, 1)" paint-order="fill stroke markers" d=" M 36.91234375 128.64 C 64.97663541666667 162.3792 72.8376550015954 192.40890208725787 107.07307291666666 212.988 C 128.96623833492873 213.84 150.5881109476607 213.84 177.23380208333333 212.988 C 206.71669428099406 206.00647662089787 219.33023958333334 193.0512 247.39453125 179.76" stroke-miterlimit="10" stroke-width="3"/></g></g></g><path fill="hsla(120, 60%, 60%, 1)" stroke="hsla(120, 60%, 60%, 1)" paint-order="fill stroke markers" d=" M 39.91234375 128.64 A 3 3 0 1 1 39.91234225000012 128.6370000005 Z" stroke-miterlimit="10"/><path fill="hsla(120, 60%, 60%, 1)" stroke="hsla(120, 60%, 60%, 1)" paint-order="fill stroke markers" d=" M 110.07307291666666 212.988 A 3 3 0 1 1 110.07307141666679 212.9850000005 Z" stroke-miterlimit="10"/><path fill="hsla(120, 60%, 60%, 1)" stroke="hsla(120, 60%, 60%, 1)" paint-order="fill stroke markers" d=" M 180.23380208333333 212.988 A 3 3 0 1 1 180.23380058333345 212.9850000005 Z" stroke-miterlimit="10"/><path fill="hsla(120, 60%, 60%, 1)" stroke="hsla(120, 60%, 60%, 1)" paint-order="fill stroke markers" d=" M 250.39453125 179.76 A 3 3 0 1 1 250.39452975000012 179.7570000005 Z" stroke-miterlimit="10"/><g ><g><g><path fill="none" stroke="hsla(0, 60%, 60%, 1)" paint-order="fill stroke markers" d=" M 36.91234375 128.64 C 64.97663541666667 151.01919999999998 75.60948806465994 170.8968189512697 107.07307291666666 184.588 C 131.73807139799328 195.3208189512697 150.40056907607075 194.69637561026693 177.23380208333333 189.7 C 206.52915240940408 184.24517561026693 219.33023958333334 170.956 247.39453125 158.46" stroke-miterlimit="10" stroke-width="3"/></g></g></g><path fill="hsla(0, 60%, 60%, 1)" stroke="hsla(0, 60%, 60%, 1)" paint-order="fill stroke markers" d=" M 39.91234375 128.64 A 3 3 0 1 1 39.91234225000012 128.6370000005 Z" stroke-miterlimit="10"/><path fill="hsla(0, 60%, 60%, 1)" stroke="hsla(0, 60%, 60%, 1)" paint-order="fill stroke markers" d=" M 110.07307291666666 184.588 A 3 3 0 1 1 110.07307141666679 184.5850000005 Z" stroke-miterlimit="10"/><path fill="hsla(0, 60%, 60%, 1)" stroke="hsla(0, 60%, 60%, 1)" paint-order="fill stroke markers" d=" M 180.23380208333333 189.7 A 3 3 0 1 1 180.23380058333345 189.6970000005 Z" stroke-miterlimit="10"/><path fill="hsla(0, 60%, 60%, 1)" stroke="hsla(0, 60%, 60%, 1)" paint-order="fill stroke markers" d=" M 250.39453125 158.46 A 3 3 0 1 1 250.39452975000012 158.45700000050002 Z" stroke-miterlimit="10"/></g></svg>