<svg version="1.1" xmlns="http://www.w3.org/2000/svg" xmlns:xlink="http://www.w3.org/1999/xlink" width="281" height="224"><defs/><g><g><rect fill="hsla(0, 60%, 60%, 1)" stroke="none" x="57.3662109375" y="45.6" width="40" height="12"/><rect fill="none" stroke="hsla(0, 60%, 60%, 1)" x="57.3662109375" y="45.6" width="40" height="12" stroke-miterlimit="10" stroke-width="2"/></g><text fill="#666" stroke="none" font-family="&quot;Roboto&quot;,&quot;Helvetica Neue&quot;,sans-serif" font-size="12px" font-style="normal" font-weight="normal" text-decoration="normal" x="103.3662109375" y="51.6" text-anchor="start" dominant-baseline="central">null</text><g><rect fill="hsla(40, 60%, 60%, 1)" stroke="none" x="132.4267578125" y="45.6" width="40" height="12"/><rect fill="none" stroke="hsla(40, 60%, 60%, 1)" x="132.4267578125" y="45.6" width="40" height="12" stroke-miterlimit="10" stroke-width="2"/></g><text fill="#666" stroke="none" font-family="&quot;Roboto&quot;,&quot;Helvetica Neue&quot;,sans-serif" font-size="12px" font-style="normal" font-weight="normal" text-decoration="normal" x="178.4267578125" y="51.6" text-anchor="start" dominant-baseline="central">Chrome</text><g><rect fill="hsla(80, 60%, 60%, 1)" stroke="none" x="30.1630859375" y="67.6" width="40" height="12"/><rect fill="none" stroke="hsla(80, 60%, 60%, 1)" x="30.1630859375" y="67.6" width="40" height="12" stroke-miterlimit="10" stroke-width="2"/></g><text fill="#666" stroke="none" font-family="&quot;Roboto&quot;,&quot;Helvetica Neue&quot;,sans-serif" font-size="12px" font-style="normal" font-weight="normal" text-decoration="normal" x="76.1630859375" y="73.6" text-anchor="start" dominant-baseline="central">Microsoft Edge</text><g><rect fill="hsla(120, 60%, 60%, 1)" stroke="none" x="167.2744140625" y="67.6" width="40" height="12"/><rect fill="none" stroke="hsla(120, 60%, 60%, 1)" x="167.2744140625" y="67.6" width="40" height="12" stroke-miterlimit="10" stroke-width="2"/></g><text fill="#666" stroke="none" font-family="&quot;Roboto&quot;,&quot;Helvetica Neue&quot;,sans-serif" font-size="12px" font-style="normal" font-weight="normal" text-decoration="normal" x="213.2744140625" y="73.6" text-anchor="start" dominant-baseline="central">Safari</text><g><rect fill="hsla(160, 60%, 60%, 1)" stroke="none" x="24.197265625" y="89.6" width="40" height="12"/><rect fill="none" stroke="hsla(160, 60%, 60%, 1)" x="24.197265625" y="89.6" width="40" height="12" stroke-miterlimit="10" stroke-width="2"/></g><text fill="#666" stroke="none" font-family="&quot;Roboto&quot;,&quot;Helvetica Neue&quot;,sans-serif" font-size="12px" font-style="normal" font-weight="normal" text-decoration="normal" x="70.197265625" y="95.6" text-anchor="start" dominant-baseline="central">Internet Explorer</text><g><rect fill="hsla(200, 60%, 60%, 1)" stroke="none" x="167.912109375" y="89.6" width="40" height="12"/><rect fill="none" stroke="hsla(200, 60%, 60%, 1)" x="167.912109375" y="89.6" width="40" height="12" stroke-miterlimit="10" stroke-width="2"/></g><text fill="#666" stroke="none" font-family="&quot;Roboto&quot;,&quot;Helvetica Neue&quot;,sans-serif" font-size="12px" font-style="normal" font-weight="normal" text-decoration="normal" x="213.912109375" y="95.6" text-anchor="start" dominant-baseline="central">Vivaldi</text><g><rect fill="hsla(240, 60%, 60%, 1)" stroke="none" x="44.17578125" y="111.6" width="40" height="12"/><rect fill="none" stroke="hsla(240, 60%, 60%, 1)" x="44.17578125" y="111.6" width="40" height="12" stroke-miterlimit="10" stroke-width="2"/></g><text fill="#666" stroke="none" font-family="&quot;Roboto&quot;,&quot;Helvetica Neue&quot;,sans-serif" font-size="12px" font-style="normal" font-weight="normal" text-decoration="normal" x="90.17578125" y="117.6" text-anchor="start" dominant-baseline="central">Firefox</text><g><rect fill="hsla(280, 60%, 60%, 1)" stroke="none" x="136.861328125" y="111.6" width="40" height="12"/><rect fill="none" stroke="hsla(280, 60%, 60%, 1)" x="136.861328125" y="111.6" width="40" height="12" stroke-miterlimit="10" stroke-width="2"/></g><text fill="#666" stroke="none" font-family="&quot;Roboto&quot;,&quot;Helvetica Neue&quot;,sans-serif" font-size="12px" font-style="normal" font-weight="normal" text-decoration="normal" x="182.861328125" y="117.6" text-anchor="start" dominant-baseline="central">Unknown</text><g><rect fill="hsla(320, 60%, 60%, 1)" stroke="none" x="100.8720703125" y="133.6" width="40" height="12"/><rect fill="none" stroke="hsla(320, 60%, 60%, 1)" x="100.8720703125" y="133.6" width="40" height="12" stroke-miterlimit="10" stroke-width="2"/></g><text fill="#666" stroke="none" font-family="&quot;Roboto&quot;,&quot;Helvetica Neue&quot;,sans-serif" font-size="12px" font-style="normal" font-weight="normal" text-decoration="normal" x="146.8720703125" y="139.6" text-anchor="start" dominant-baseline="central">Opera</text><g transform="translate(140.5,17.8) rotate(0,0,0)"><text fill="#000000" stroke="none" font-family="&quot;Roboto&quot;,&quot;Helvetica Neue&quot;,sans-serif" font-size="13px" font-style="normal" font-weight="bold" text-decoration="normal" x="0" y="0" text-anchor="middle" dominant-baseline="central">Browser distribution from custom class</text></g><g><path fill="hsla(0, 60%, 60%, 1)" stroke="none" paint-order="stroke fill markers" d=" Z"/><path fill="none" stroke="hsla(0, 60%, 60%, 1)" paint-order="fill stroke markers" d=" Z" stroke-linejoin="bevel" stroke-miterlimit="10" stroke-width="2"/></g><g><path fill="hsla(40, 60%, 60%, 1)" stroke="none" paint-order="stroke fill markers" d=" M 140.5 156.60000000000002 A 33.2 33.2 0 1 1 140.24439368267014 156.60098396924178 L 140.5 189.8 A 0 0 0 1 0 140.5 189.8 Z"/><path fill="none" stroke="hsla(40, 60%, 60%, 1)" paint-order="fill stroke markers" d=" M 140.5 156.60000000000002 A 33.2 33.2 0 1 1 140.24439368267014 156.60098396924178 L 140.5 189.8 A 0 0 0 1 0 140.5 189.8 Z" stroke-linejoin="bevel" stroke-miterlimit="10" stroke-width="2"/></g><g><path fill="hsla(80, 60%, 60%, 1)" stroke="none" paint-order="stroke fill markers" d=" M 140.24439368267014 156.60098396924178 A 33.2 33.2 0 0 1 140.2679426037034 156.60081101344758 L 140.5 189.8 A 0 0 0 0 0 140.5 189.8 Z"/><path fill="none" stroke="hsla(80, 60%, 60%, 1)" paint-order="fill stroke markers" d=" M 140.24439368267014 156.60098396924178 A 33.2 33.2 0 0 1 140.2679426037034 156.60081101344758 L 140.5 189.8 A 0 0 0 0 0 140.5 189.8 Z" stroke-linejoin="bevel" stroke-miterlimit="10" stroke-width="2"/></g><g><path fill="hsla(120, 60%, 60%, 1)" stroke="none" paint-order="stroke fill markers" d=" M 140.2679426037034 156.60081101344758 A 33.2 33.2 0 0 1 140.32746165539572 156.6004483385748 L 140.5 189.8 A 0 0 0 0 0 140.5 189.8 Z"/><path fill="none" stroke="hsla(120, 60%, 60%, 1)" paint-order="fill stroke markers" d=" M 140.2679426037034 156.60081101344758 A 33.2 33.2 0 0 1 140.32746165539572 156.6004483385748 L 140.5 189.8 A 0 0 0 0 0 140.5 189.8 Z" stroke-linejoin="bevel" stroke-miterlimit="10" stroke-width="2"/></g><g><path fill="hsla(160, 60%, 60%, 1)" stroke="none" paint-order="stroke fill markers" d=" M 140.32746165539572 156.6004483385748 A 33.2 33.2 0 0 1 140.36866506404684 156.6002597730856 L 140.5 189.8 A 0 0 0 0 0 140.5 189.8 Z"/><path fill="none" stroke="hsla(160, 60%, 60%, 1)" paint-order="fill stroke markers" d=" M 140.32746165539572 156.6004483385748 A 33.2 33.2 0 0 1 140.36866506404684 156.6002597730856 L 140.5 189.8 A 0 0 0 0 0 140.5 189.8 Z" stroke-linejoin="bevel" stroke-miterlimit="10" stroke-width="2"/></g><g><path fill="hsla(200, 60%, 60%, 1)" stroke="none" paint-order="stroke fill markers" d=" M 140.36866506404684 156.6002597730856 A 33.2 33.2 0 0 1 140.37036742848824 156.6002530823441 L 140.5 189.8 A 0 0 0 0 0 140.5 189.8 Z"/><path fill="none" stroke="hsla(200, 60%, 60%, 1)" paint-order="fill stroke markers" d=" M 140.36866506404684 156.6002597730856 A 33.2 33.2 0 0 1 140.37036742848824 156.6002530823441 L 140.5 189.8 A 0 0 0 0 0 140.5 189.8 Z" stroke-linejoin="bevel" stroke-miterlimit="10" stroke-width="2"/></g><g><path fill="hsla(240, 60%, 60%, 1)" stroke="none" paint-order="stroke fill markers" d=" M 140.37036742848824 156.6002530823441 A 33.2 33.2 0 0 1 140.48162062807177 156.60000508736957 L 140.5 189.8 A 0 0 0 0 0 140.5 189.8 Z"/><path fill="none" stroke="hsla(240, 60%, 60%, 1)" paint-order="fill stroke markers" d=" M 140.37036742848824 156.6002530823441 A 33.2 33.2 0 0 1 140.48162062807177 156.60000508736957 L 140.5 189.8 A 0 0 0 0 0 140.5 189.8 Z" stroke-linejoin="bevel" stroke-miterlimit="10" stroke-width="2"/></g><g><path fill="hsla(280, 60%, 60%, 1)" stroke="none" paint-order="stroke fill markers" d=" M 140.48162062807177 156.60000508736957 A 33.2 33.2 0 0 1 140.499590168358 156.60000000252955 L 140.5 189.8 A 0 0 0 0 0 140.5 189.8 Z"/><path fill="none" stroke="hsla(280, 60%, 60%, 1)" paint-order="fill stroke markers" d=" M 140.48162062807177 156.60000508736957 A 33.2 33.2 0 0 1 140.499590168358 156.60000000252955 L 140.5 189.8 A 0 0 0 0 0 140.5 189.8 Z" stroke-linejoin="bevel" stroke-miterlimit="10" stroke-width="2"/></g><g><path fill="hsla(320, 60%, 60%, 1)" stroke="none" paint-order="stroke fill markers" d=" M 140.499590168358 156.60000000252955 A 33.2 33.2 0 0 1 140.49999999999997 156.60000000000002 L 140.5 189.8 A 0 0 0 0 0 140.5 189.8 Z"/><path fill="none" stroke="hsla(320, 60%, 60%, 1)" paint-order="fill stroke markers" d=" M 140.499590168358 156.60000000252955 A 33.2 33.2 0 0 1 140.49999999999997 156.60000000000002 L 140.5 189.8 A 0 0 0 0 0 140.5 189.8 Z" stroke-linejoin="bevel" stroke-miterlimit="10" stroke-width="2"/></g></g></svg>